<svg width="147" height="147" viewBox="0 0 147 147" fill="none" xmlns="http://www.w3.org/2000/svg">
<g filter="url(#filter0_d_1303_2072)">
<path d="M80.5333 129.184V132H88.976V129.184H80.5333Z" fill="#FBBAC2"/>
<path d="M91.7893 126.371H88.976V129.184L91.7893 129.184V126.371Z" fill="#FBBAC2"/>
<path d="M80.5333 126.371H77.72V129.184L80.5333 129.184L80.5333 126.371Z" fill="#FBBAC2"/>
<path d="M94.6026 123.557H91.7893L91.7893 126.371L94.6026 126.371V123.557Z" fill="#FBBAC2"/>
<path d="M97.4159 120.744H94.6026L94.6026 123.557L97.4159 123.557V120.744Z" fill="#FBBAC2"/>
<path d="M77.72 112.301H74.9067V126.371H77.72L77.72 112.301Z" fill="#FBBAC2"/>
<path d="M119.928 117.928V112.301H117.115V117.928H111.488V120.744H117.115V126.371H119.928V120.744H125.557V117.928H119.928Z" fill="#FBBAC2"/>
<path d="M97.4187 120.744H100.232V115.115H97.4187V120.744Z" fill="#FBBAC2"/>
<path d="M100.232 115.115L103.045 115.115V109.488H100.232L100.232 115.115Z" fill="#FBBAC2"/>
<path d="M80.5333 109.488H77.72L77.72 112.301L80.5333 112.301V109.488Z" fill="#FBBAC2"/>
<path d="M83.3466 106.675H80.5333L80.5333 109.488H83.3466V106.675Z" fill="#FBBAC2"/>
<path d="M72.0933 106.675H43.952V109.488H72.0933V106.675Z" fill="#FBBAC2"/>
<path d="M108.672 103.859H105.859V106.672H108.672V103.859Z" fill="#FBBAC2"/>
<path d="M111.488 98.232H108.675V103.859H111.488V98.232Z" fill="#FBBAC2"/>
<path d="M105.859 101.045H103.045V103.859L105.859 103.859L105.859 101.045Z" fill="#FBBAC2"/>
<path d="M27.0693 101.045V103.859H35.512V101.045H27.0693Z" fill="#FBBAC2"/>
<path d="M38.3253 98.232H35.512L35.512 101.045L38.3253 101.045V98.232Z" fill="#FBBAC2"/>
<path d="M27.0693 98.232H24.256V101.045L27.0693 101.045L27.0693 98.232Z" fill="#FBBAC2"/>
<path d="M114.301 92.6026H111.488V98.232L114.301 98.232V92.6026Z" fill="#FBBAC2"/>
<path d="M131.184 92.6026H128.371V95.4159H131.184V92.6026Z" fill="#FBBAC2"/>
<path d="M24.256 89.7893H21.4427V98.232H24.256V89.7893Z" fill="#FBBAC2"/>
<path d="M117.115 84.1627H114.301L114.301 92.6026L117.115 92.6026V84.1627Z" fill="#FBBAC2"/>
<path d="M38.3253 98.232H41.1386V89.7893H38.3253V98.232Z" fill="#FBBAC2"/>
<path d="M131.184 86.976H128.371V89.7893H131.184V86.976Z" fill="#FBBAC2"/>
<path d="M125.557 84.1627H122.744V89.7893H119.928V92.6026H122.744V98.232H125.557V92.6026L128.371 92.6026V89.7893L125.557 89.7893V84.1627Z" fill="#FBBAC2"/>
<path d="M38.3253 86.976H35.512V89.7893L38.3253 89.7893V86.976Z" fill="#FBBAC2"/>
<path d="M27.0693 86.976H24.256V89.7893L27.0693 89.7893V86.976Z" fill="#FBBAC2"/>
<path d="M35.512 86.976L35.512 84.1627H27.0693L27.0693 86.976H35.512Z" fill="#FBBAC2"/>
<path d="M125.557 78.5333H122.744V81.3466H125.557V78.5333Z" fill="#FBBAC2"/>
<path d="M117.115 81.3494H119.928V75.72H117.115V81.3494Z" fill="#FBBAC2"/>
<path d="M46.768 78.5333V75.72H38.3253V78.5333H46.768Z" fill="#FBBAC2"/>
<path d="M125.557 78.5333H128.371V72.9067H125.557L125.557 78.5333Z" fill="#FBBAC2"/>
<path d="M18.6266 75.72H21.4427V70.0933H27.0693V67.2773H21.4427V61.6507H18.6266V67.2773H13V70.0933H18.6266V75.72Z" fill="#FBBAC2"/>
<path d="M46.768 75.72H49.5813V67.2773H46.768V75.72Z" fill="#FBBAC2"/>
<path d="M38.3253 67.2773H35.512V75.72H38.3253V67.2773Z" fill="#FBBAC2"/>
<path d="M128.371 72.9067L131.184 72.9067V67.2773H128.371L128.371 72.9067Z" fill="#FBBAC2"/>
<path d="M46.768 67.2773V64.464H38.3253V67.2773H46.768Z" fill="#FBBAC2"/>
<path d="M131.184 67.2773L134 67.2773V58.8373H131.184L131.184 67.2773Z" fill="#FBBAC2"/>
<path d="M41.1386 56.024H38.3253V58.8373H41.1386V56.024Z" fill="#FBBAC2"/>
<path d="M80.5333 53.208V56.024H86.1627V53.208H80.5333Z" fill="#FBBAC2"/>
<path d="M72.0933 53.208V56.024H77.72V53.208H72.0933Z" fill="#FBBAC2"/>
<path d="M38.3253 53.208H35.512V56.0213H38.3253V53.208Z" fill="#FBBAC2"/>
<path d="M86.1627 53.208L88.976 53.208V44.768H86.1627V53.208Z" fill="#FBBAC2"/>
<path d="M80.5333 44.768H77.72L77.72 53.208H80.5333L80.5333 44.768Z" fill="#FBBAC2"/>
<path d="M72.0933 44.768H69.2773V53.208L72.0933 53.208L72.0933 44.768Z" fill="#FBBAC2"/>
<path d="M63.6507 50.3946V44.768H58.024V50.3946H63.6507Z" fill="#FBBAC2"/>
<path d="M105.859 44.768V50.3946H111.488V44.768H105.859Z" fill="#FBBAC2"/>
<path d="M86.1627 41.952H83.3493V44.7653H86.1627V41.952Z" fill="#FBBAC2"/>
<path d="M74.9067 41.952H72.0933V44.7653H74.9067V41.952Z" fill="#FBBAC2"/>
<path d="M131.184 56.024H134V39.1386H131.184V56.024Z" fill="#FBBAC2"/>
<path d="M119.928 56.024H122.744V39.1386H119.928V56.024Z" fill="#FBBAC2"/>
<path d="M32.6987 53.208H35.512L35.512 39.1386H32.6987V53.208Z" fill="#FBBAC2"/>
<path d="M122.744 36.3253V39.1386H131.184L131.184 36.3253H122.744Z" fill="#FBBAC2"/>
<path d="M43.952 36.3253H41.1386V39.1386H43.952V36.3253Z" fill="#FBBAC2"/>
<path d="M38.3253 36.3253H35.512L35.512 39.1386L38.3253 39.1386V36.3253Z" fill="#FBBAC2"/>
<path d="M49.5813 36.3253V33.512H43.952L43.952 36.3253H49.5813Z" fill="#FBBAC2"/>
<path d="M41.1386 33.512H38.3253V36.3253H41.1386L41.1386 33.512Z" fill="#FBBAC2"/>
<path d="M114.301 27.8826H117.115V22.256H114.301V27.8826Z" fill="#FBBAC2"/>
<path d="M105.859 22.256H103.045V27.8826H105.859V22.256Z" fill="#FBBAC2"/>
<path d="M77.72 27.8826H80.5333V22.256H77.72V27.8826Z" fill="#FBBAC2"/>
<path d="M69.2773 22.256H66.464V27.8826H69.2773V22.256Z" fill="#FBBAC2"/>
<path d="M111.488 22.256L114.301 22.256L114.301 16.6266H111.488V22.256Z" fill="#FBBAC2"/>
<path d="M108.675 16.6266H105.859L105.859 22.256L108.675 22.256V16.6266Z" fill="#FBBAC2"/>
<path d="M74.9067 22.256L77.72 22.256L77.72 16.6266H74.9067V22.256Z" fill="#FBBAC2"/>
<path d="M72.0933 16.6266H69.2773L69.2773 22.256L72.0933 22.256V16.6266Z" fill="#FBBAC2"/>
<path d="M32.6987 25.0693H35.512V19.4427H38.3253V16.6266H35.512V11H32.6987V16.6266H29.8826V19.4427H32.6987V25.0693Z" fill="#FBBAC2"/>
<path d="M111.488 11H108.675L108.675 16.6266H111.488V11Z" fill="#FBBAC2"/>
<path d="M74.9067 11H72.0933L72.0933 16.6266H74.9067L74.9067 11Z" fill="#FBBAC2"/>
</g>
<defs>
<filter id="filter0_d_1303_2072" x="0.8" y="0.8" width="145.4" height="145.4" filterUnits="userSpaceOnUse" color-interpolation-filters="sRGB">
<feFlood flood-opacity="0" result="BackgroundImageFix"/>
<feColorMatrix in="SourceAlpha" type="matrix" values="0 0 0 0 0 0 0 0 0 0 0 0 0 0 0 0 0 0 127 0" result="hardAlpha"/>
<feOffset dy="2"/>
<feGaussianBlur stdDeviation="6.1"/>
<feComposite in2="hardAlpha" operator="out"/>
<feColorMatrix type="matrix" values="0 0 0 0 0.984314 0 0 0 0 0.729412 0 0 0 0 0.760784 0 0 0 1 0"/>
<feBlend mode="normal" in2="BackgroundImageFix" result="effect1_dropShadow_1303_2072"/>
<feBlend mode="normal" in="SourceGraphic" in2="effect1_dropShadow_1303_2072" result="shape"/>
</filter>
</defs>
</svg>
