<svg width="209" height="180" viewBox="0 0 209 180" fill="none" xmlns="http://www.w3.org/2000/svg">
<g filter="url(#filter0_d_1291_5532)">
<path d="M22.3466 23.6278L16.9773 27.5057L19.0938 21.1989L13.7102 17.3068H20.3011L22.3466 11L24.392 17.3068H30.983L25.5994 21.1989L27.7159 27.5057L22.3466 23.6278ZM22.3466 21.8665L24.9602 23.7557L23.9233 20.6591L26.5938 18.7273H23.3693L22.3466 15.6023L21.3381 18.7273H18.0994L20.7699 20.6591L19.733 23.7557L22.3466 21.8665Z" fill="#FBBAC2"/>
<path d="M42.1132 21L42.2268 17.875L39.5848 19.5511L38.903 18.358L41.6871 16.9091L38.903 15.4602L39.5848 14.267L42.2268 15.9432L42.1132 12.8182H43.4768L43.3632 15.9432L46.0052 14.267L46.6871 15.4602L43.903 16.9091L46.6871 18.358L46.0052 19.5511L43.3632 17.875L43.4768 21H42.1132Z" fill="#FBBAC2"/>
<path d="M69.9107 27.4773C69.5603 27.4773 69.2597 27.3518 69.0087 27.1009C68.7578 26.8499 68.6323 26.5492 68.6323 26.1989C68.6323 25.8485 68.7578 25.5478 69.0087 25.2969C69.2597 25.0459 69.5603 24.9205 69.9107 24.9205C70.2611 24.9205 70.5617 25.0459 70.8127 25.2969C71.0636 25.5478 71.1891 25.8485 71.1891 26.1989C71.1891 26.4309 71.1299 26.6439 71.0116 26.8381C70.8979 27.0322 70.744 27.1884 70.5499 27.3068C70.3605 27.4205 70.1474 27.4773 69.9107 27.4773Z" fill="#FBBAC2"/>
<path d="M107.782 23.6278L102.413 27.5057L104.53 21.1989L99.146 17.3068H105.737L107.782 11L109.828 17.3068H116.419L111.035 21.1989L113.152 27.5057L107.782 23.6278ZM107.782 21.8665L110.396 23.7557L109.359 20.6591L112.03 18.7273H108.805L107.782 15.6023L106.774 18.7273H103.535L106.206 20.6591L105.169 23.7557L107.782 21.8665Z" fill="#FBBAC2"/>
<path d="M54.0077 54.4773C53.6573 54.4773 53.3567 54.3518 53.1057 54.1009C52.8548 53.8499 52.7293 53.5492 52.7293 53.1989C52.7293 52.8485 52.8548 52.5478 53.1057 52.2969C53.3567 52.0459 53.6573 51.9205 54.0077 51.9205C54.3581 51.9205 54.6588 52.0459 54.9097 52.2969C55.1607 52.5478 55.2861 52.8485 55.2861 53.1989C55.2861 53.4309 55.227 53.6439 55.1086 53.8381C54.9949 54.0322 54.8411 54.1884 54.6469 54.3068C54.4575 54.4205 54.2445 54.4773 54.0077 54.4773Z" fill="#FBBAC2"/>
<path d="M62.7649 54.3636L68.3849 42.7636H69.3849L75.0049 54.3636H73.3449L68.8849 44.8036L64.4249 54.3636H62.7649Z" fill="#FBBAC2"/>
<path d="M95.7022 55.9436V56.7636H75.7022V55.9436H95.7022Z" fill="#FBBAC2"/>
<path d="M96.4022 54.3636L102.022 42.7636H103.022L108.642 54.3636H106.982L102.522 44.8036L98.0622 54.3636H96.4022Z" fill="#FBBAC2"/>
<path d="M130.02 54.3636V47.9436C130.02 43.4636 132.04 41.0836 135.86 41.0836C139.7 41.0836 141.7 43.4636 141.7 47.9436V54.3636H140.26V47.8836C140.26 44.2436 138.82 42.4436 135.86 42.4436C132.9 42.4436 131.46 44.2236 131.46 47.8836V54.3636H130.02Z" fill="#FBBAC2"/>
<path d="M166.37 48L166.483 44.875L163.841 46.5511L163.159 45.358L165.943 43.9091L163.159 42.4602L163.841 41.267L166.483 42.9432L166.37 39.8182H167.733L167.62 42.9432L170.262 41.267L170.943 42.4602L168.159 43.9091L170.943 45.358L170.262 46.5511L167.62 44.875L167.733 48H166.37Z" fill="#FBBAC2"/>
<path d="M187.491 50.6278L182.122 54.5057L184.238 48.1989L178.855 44.3068H185.446L187.491 38L189.536 44.3068H196.127L190.744 48.1989L192.86 54.5057L187.491 50.6278ZM187.491 48.8665L190.105 50.7557L189.068 47.6591L191.738 45.7273H188.514L187.491 42.6023L186.482 45.7273H183.244L185.914 47.6591L184.877 50.7557L187.491 48.8665Z" fill="#FBBAC2"/>
<path d="M16.2102 75L16.3239 71.875L13.6818 73.5511L13 72.358L15.7841 70.9091L13 69.4602L13.6818 68.267L16.3239 69.9432L16.2102 66.8182H17.5739L17.4602 69.9432L20.1023 68.267L20.7841 69.4602L18 70.9091L20.7841 72.358L20.1023 73.5511L17.4602 71.875L17.5739 75H16.2102Z" fill="#FBBAC2"/>
<path d="M37.3316 77.6278L31.9623 81.5057L34.0788 75.1989L28.6952 71.3068H35.2861L37.3316 65L39.377 71.3068H45.968L40.5844 75.1989L42.7009 81.5057L37.3316 77.6278ZM37.3316 75.8665L39.9452 77.7557L38.9083 74.6591L41.5788 72.7273H38.3543L37.3316 69.6023L36.3231 72.7273H33.0844L35.7549 74.6591L34.718 77.7557L37.3316 75.8665Z" fill="#FBBAC2"/>
<path d="M54.9107 75.2273C54.9107 73.4375 55.1427 71.7921 55.6067 70.2912C56.0755 68.7855 56.7431 67.4006 57.6096 66.1364H59.0868C58.7459 66.6051 58.4263 67.1828 58.128 67.8693C57.8345 68.5511 57.5764 69.3016 57.3539 70.1207C57.1313 70.9351 56.9562 71.7779 56.8283 72.6491C56.7052 73.5204 56.6437 74.3797 56.6437 75.2273C56.6437 76.3542 56.7526 77.4976 56.9704 78.6577C57.1882 79.8177 57.4817 80.8949 57.851 81.8892C58.2204 82.8835 58.6323 83.6932 59.0868 84.3182H57.6096C56.7431 83.054 56.0755 81.6714 55.6067 80.1705C55.1427 78.6648 54.9107 77.017 54.9107 75.2273Z" fill="#FBBAC2"/>
<path d="M75.0111 71.6436C75.4111 71.6436 75.7711 71.737 76.0911 71.9236C76.4111 72.1103 76.6644 72.3636 76.8511 72.6836C77.0378 73.0036 77.1311 73.3636 77.1311 73.7636C77.1311 74.1503 77.0378 74.5103 76.8511 74.8436C76.6644 75.1636 76.4111 75.417 76.0911 75.6036C75.7711 75.7903 75.4111 75.8836 75.0111 75.8836C74.6244 75.8836 74.2644 75.7903 73.9311 75.6036C73.6111 75.417 73.3578 75.1636 73.1711 74.8436C72.9844 74.5103 72.8911 74.1503 72.8911 73.7636C72.8911 73.3636 72.9844 73.0036 73.1711 72.6836C73.3578 72.3636 73.6111 72.1103 73.9311 71.9236C74.2644 71.737 74.6244 71.6436 75.0111 71.6436Z" fill="#FBBAC2"/>
<path d="M91.3311 81.4436L85.7111 67.0636H87.6511L89.2911 71.5236H95.0111L96.7311 67.0636H98.6711L92.9711 81.4436H91.3311ZM92.1911 79.7236C92.2511 79.4236 92.3911 78.8836 92.6511 78.1436C92.9111 77.3836 93.4911 75.7236 94.4511 73.1636H89.9311C91.0711 76.3636 91.7111 78.2036 91.8911 78.7236C92.0711 79.2436 92.1711 79.5836 92.1911 79.7236Z" fill="#FBBAC2"/>
<path d="M109.371 71.6436C109.771 71.6436 110.131 71.737 110.451 71.9236C110.771 72.1103 111.024 72.3636 111.211 72.6836C111.398 73.0036 111.491 73.3636 111.491 73.7636C111.491 74.1503 111.398 74.5103 111.211 74.8436C111.024 75.1636 110.771 75.417 110.451 75.6036C110.131 75.7903 109.771 75.8836 109.371 75.8836C108.984 75.8836 108.624 75.7903 108.291 75.6036C107.971 75.417 107.718 75.1636 107.531 74.8436C107.344 74.5103 107.251 74.1503 107.251 73.7636C107.251 73.3636 107.344 73.0036 107.531 72.6836C107.718 72.3636 107.971 72.1103 108.291 71.9236C108.624 71.737 108.984 71.6436 109.371 71.6436Z" fill="#FBBAC2"/>
<path d="M124.165 75.2273C124.165 77.017 123.93 78.6648 123.462 80.1705C122.998 81.6714 122.332 83.054 121.466 84.3182H119.989C120.33 83.8494 120.647 83.2718 120.94 82.5852C121.239 81.9034 121.499 81.1553 121.722 80.3409C121.944 79.5218 122.117 78.6766 122.24 77.8054C122.368 76.9295 122.432 76.0701 122.432 75.2273C122.432 74.1004 122.323 72.9569 122.105 71.7969C121.887 70.6368 121.594 69.5597 121.224 68.5653C120.855 67.571 120.443 66.7614 119.989 66.1364H121.466C122.332 67.4006 122.998 68.7855 123.462 70.2912C123.93 71.7921 124.165 73.4375 124.165 75.2273Z" fill="#FBBAC2"/>
<path d="M132.653 66.1364L127.966 83.5511H126.432L131.119 66.1364H132.653Z" fill="#FBBAC2"/>
<path d="M140.847 81.4773C140.496 81.4773 140.196 81.3518 139.945 81.1009C139.694 80.8499 139.568 80.5492 139.568 80.1989C139.568 79.8485 139.694 79.5478 139.945 79.2969C140.196 79.0459 140.496 78.9205 140.847 78.9205C141.197 78.9205 141.498 79.0459 141.749 79.2969C142 79.5478 142.125 79.8485 142.125 80.1989C142.125 80.4309 142.066 80.6439 141.948 80.8381C141.834 81.0322 141.68 81.1884 141.486 81.3068C141.297 81.4205 141.084 81.4773 140.847 81.4773Z" fill="#FBBAC2"/>
<path d="M34.3277 108.477C33.9774 108.477 33.6767 108.352 33.4257 108.101C33.1748 107.85 33.0493 107.549 33.0493 107.199C33.0493 106.848 33.1748 106.548 33.4257 106.297C33.6767 106.046 33.9774 105.92 34.3277 105.92C34.6781 105.92 34.9788 106.046 35.2297 106.297C35.4807 106.548 35.6061 106.848 35.6061 107.199C35.6061 107.431 35.547 107.644 35.4286 107.838C35.3149 108.032 35.1611 108.188 34.9669 108.307C34.7775 108.42 34.5645 108.477 34.3277 108.477Z" fill="#FBBAC2"/>
<path d="M49.6449 108.604C45.3049 108.604 43.0849 106.564 43.0849 102.784C43.0849 98.9836 45.3049 96.9636 49.6449 96.9636H55.0249V98.3836H49.6449C46.1849 98.3836 44.5249 99.7036 44.5249 102.784C44.5249 105.864 46.1649 107.204 49.6449 107.204H55.0249V108.604H49.6449Z" fill="#FBBAC2"/>
<path d="M116.434 93.9836C116.314 94.2503 116.201 94.5436 116.094 94.8636C115.988 95.1836 115.888 95.4703 115.794 95.7236C115.541 96.4436 115.234 97.237 114.874 98.1036C114.514 98.957 114.108 99.8036 113.654 100.644C113.201 101.484 112.694 102.27 112.134 103.004C111.534 103.764 110.828 104.504 110.014 105.224C109.201 105.944 108.334 106.604 107.414 107.204C106.494 107.804 105.554 108.304 104.594 108.704L103.194 107.244C104.194 106.897 105.154 106.457 106.074 105.924C106.994 105.377 107.854 104.764 108.654 104.084C109.454 103.404 110.154 102.69 110.754 101.944C111.381 101.17 111.941 100.31 112.434 99.3636C112.928 98.417 113.354 97.437 113.714 96.4236C114.074 95.4103 114.348 94.4236 114.534 93.4636L116.434 93.9836Z" fill="#FBBAC2"/>
<path d="M124.392 102L124.506 98.875L121.864 100.551L121.182 99.358L123.966 97.9091L121.182 96.4602L121.864 95.267L124.506 96.9432L124.392 93.8182H125.756L125.642 96.9432L128.284 95.267L128.966 96.4602L126.182 97.9091L128.966 99.358L128.284 100.551L125.642 98.875L125.756 102H124.392Z" fill="#FBBAC2"/>
<path d="M145.514 104.628L140.144 108.506L142.261 102.199L136.877 98.3068H143.468L145.514 92L147.559 98.3068H154.15L148.767 102.199L150.883 108.506L145.514 104.628ZM145.514 102.866L148.127 104.756L147.09 101.659L149.761 99.7273H146.537L145.514 96.6023L144.505 99.7273H141.267L143.937 101.659L142.9 104.756L145.514 102.866Z" fill="#FBBAC2"/>
<path d="M22.3466 131.628L16.9773 135.506L19.0938 129.199L13.7102 125.307H20.3011L22.3466 119L24.392 125.307H30.983L25.5994 129.199L27.7159 135.506L22.3466 131.628ZM22.3466 129.866L24.9602 131.756L23.9233 128.659L26.5938 126.727H23.3693L22.3466 123.602L21.3381 126.727H18.0994L20.7699 128.659L19.733 131.756L22.3466 129.866Z" fill="#FBBAC2"/>
<path d="M42.1132 129L42.2268 125.875L39.5848 127.551L38.903 126.358L41.6871 124.909L38.903 123.46L39.5848 122.267L42.2268 123.943L42.1132 120.818H43.4768L43.3632 123.943L46.0052 122.267L46.6871 123.46L43.903 124.909L46.6871 126.358L46.0052 127.551L43.3632 125.875L43.4768 129H42.1132Z" fill="#FBBAC2"/>
<path d="M54.9107 129.227C54.9107 127.438 55.1427 125.792 55.6067 124.291C56.0755 122.786 56.7431 121.401 57.6096 120.136H59.0868C58.7459 120.605 58.4263 121.183 58.128 121.869C57.8345 122.551 57.5764 123.302 57.3539 124.121C57.1313 124.935 56.9562 125.778 56.8283 126.649C56.7052 127.52 56.6437 128.38 56.6437 129.227C56.6437 130.354 56.7526 131.498 56.9704 132.658C57.1882 133.818 57.4817 134.895 57.851 135.889C58.2204 136.884 58.6323 137.693 59.0868 138.318H57.6096C56.7431 137.054 56.0755 135.671 55.6067 134.17C55.1427 132.665 54.9107 131.017 54.9107 129.227Z" fill="#FBBAC2"/>
<path d="M61.1661 124.924C61.5261 124.857 61.8861 124.777 62.2461 124.684C62.6194 124.577 62.9928 124.464 63.3661 124.344C63.7928 124.21 64.3394 124.037 65.0061 123.824C65.6728 123.597 66.3994 123.377 67.1861 123.164C67.9728 122.937 68.7728 122.75 69.5861 122.604C70.4128 122.444 71.1861 122.364 71.9061 122.364C73.0261 122.364 74.0328 122.57 74.9261 122.984C75.8194 123.397 76.5328 123.997 77.0661 124.784C77.5994 125.57 77.8661 126.524 77.8661 127.644C77.8661 128.604 77.6795 129.464 77.3061 130.224C76.9461 130.984 76.4328 131.657 75.7661 132.244C75.1128 132.817 74.3328 133.304 73.4261 133.704C72.5194 134.09 71.5128 134.404 70.4061 134.644C69.3128 134.87 68.1528 135.017 66.9261 135.084L66.2061 133.424C67.5261 133.397 68.7794 133.27 69.9661 133.044C71.1528 132.804 72.2061 132.457 73.1261 132.004C74.0594 131.55 74.7928 130.964 75.3261 130.244C75.8594 129.51 76.1261 128.63 76.1261 127.604C76.1261 126.91 75.9594 126.284 75.6261 125.724C75.2928 125.15 74.8061 124.697 74.1661 124.364C73.5394 124.03 72.7728 123.864 71.8661 123.864C71.2128 123.864 70.4994 123.944 69.7261 124.104C68.9528 124.25 68.1728 124.444 67.3861 124.684C66.5994 124.91 65.8461 125.157 65.1261 125.424C64.4194 125.69 63.7861 125.937 63.2261 126.164C62.6661 126.39 62.2261 126.564 61.9061 126.684L61.1661 124.924Z" fill="#FBBAC2"/>
<path d="M100.731 120.984C100.611 121.25 100.498 121.544 100.391 121.864C100.284 122.184 100.184 122.47 100.091 122.724C99.8378 123.444 99.5311 124.237 99.1711 125.104C98.8111 125.957 98.4044 126.804 97.9511 127.644C97.4978 128.484 96.9911 129.27 96.4311 130.004C95.8311 130.764 95.1244 131.504 94.3111 132.224C93.4978 132.944 92.6311 133.604 91.7111 134.204C90.7911 134.804 89.8511 135.304 88.8911 135.704L87.4911 134.244C88.4911 133.897 89.4511 133.457 90.3711 132.924C91.2911 132.377 92.1511 131.764 92.9511 131.084C93.7511 130.404 94.4511 129.69 95.0511 128.944C95.6778 128.17 96.2378 127.31 96.7311 126.364C97.2244 125.417 97.6511 124.437 98.0111 123.424C98.3711 122.41 98.6444 121.424 98.8311 120.464L100.731 120.984Z" fill="#FBBAC2"/>
<path d="M112.432 135.477C112.081 135.477 111.781 135.352 111.53 135.101C111.279 134.85 111.153 134.549 111.153 134.199C111.153 133.848 111.279 133.548 111.53 133.297C111.781 133.046 112.081 132.92 112.432 132.92C112.782 132.92 113.083 133.046 113.334 133.297C113.585 133.548 113.71 133.848 113.71 134.199C113.71 134.431 113.651 134.644 113.533 134.838C113.419 135.032 113.265 135.188 113.071 135.307C112.882 135.42 112.669 135.477 112.432 135.477Z" fill="#FBBAC2"/>
<path d="M125.318 131.628L119.949 135.506L122.066 129.199L116.682 125.307H123.273L125.318 119L127.364 125.307H133.955L128.571 129.199L130.688 135.506L125.318 131.628ZM125.318 129.866L127.932 131.756L126.895 128.659L129.566 126.727H126.341L125.318 123.602L124.31 126.727H121.071L123.742 128.659L122.705 131.756L125.318 129.866Z" fill="#FBBAC2"/>
<path d="M58.6877 156.227C58.6877 154.438 58.9197 152.792 59.3838 151.291C59.8525 149.786 60.5201 148.401 61.3866 147.136H62.8639C62.523 147.605 62.2034 148.183 61.9051 148.869C61.6115 149.551 61.3534 150.302 61.1309 151.121C60.9084 151.935 60.7332 152.778 60.6053 153.649C60.4822 154.52 60.4207 155.38 60.4207 156.227C60.4207 157.354 60.5296 158.498 60.7474 159.658C60.9652 160.818 61.2588 161.895 61.6281 162.889C61.9974 163.884 62.4093 164.693 62.8639 165.318H61.3866C60.5201 164.054 59.8525 162.671 59.3838 161.17C58.9197 159.665 58.6877 158.017 58.6877 156.227Z" fill="#FBBAC2"/>
<path d="M79.5231 147.984C79.4031 148.25 79.2898 148.544 79.1831 148.864C79.0765 149.184 78.9765 149.47 78.8831 149.724C78.6298 150.444 78.3231 151.237 77.9631 152.104C77.6031 152.957 77.1965 153.804 76.7431 154.644C76.2898 155.484 75.7831 156.27 75.2231 157.004C74.6231 157.764 73.9165 158.504 73.1031 159.224C72.2898 159.944 71.4231 160.604 70.5031 161.204C69.5831 161.804 68.6431 162.304 67.6831 162.704L66.2831 161.244C67.2831 160.897 68.2431 160.457 69.1631 159.924C70.0831 159.377 70.9431 158.764 71.7431 158.084C72.5431 157.404 73.2431 156.69 73.8431 155.944C74.4698 155.17 75.0298 154.31 75.5231 153.364C76.0165 152.417 76.4431 151.437 76.8031 150.424C77.1631 149.41 77.4365 148.424 77.6231 147.464L79.5231 147.984Z" fill="#FBBAC2"/>
</g>
<defs>
<filter id="filter0_d_1291_5532" x="0.8" y="0.8" width="207.527" height="178.718" filterUnits="userSpaceOnUse" color-interpolation-filters="sRGB">
<feFlood flood-opacity="0" result="BackgroundImageFix"/>
<feColorMatrix in="SourceAlpha" type="matrix" values="0 0 0 0 0 0 0 0 0 0 0 0 0 0 0 0 0 0 127 0" result="hardAlpha"/>
<feOffset dy="2"/>
<feGaussianBlur stdDeviation="6.1"/>
<feComposite in2="hardAlpha" operator="out"/>
<feColorMatrix type="matrix" values="0 0 0 0 0.984314 0 0 0 0 0.729412 0 0 0 0 0.760784 0 0 0 1 0"/>
<feBlend mode="normal" in2="BackgroundImageFix" result="effect1_dropShadow_1291_5532"/>
<feBlend mode="normal" in="SourceGraphic" in2="effect1_dropShadow_1291_5532" result="shape"/>
</filter>
</defs>
</svg>
