<svg width="32" height="32" viewBox="0 0 32 32" fill="none" xmlns="http://www.w3.org/2000/svg">
<path d="M24.267 21.6006H7.73366C7.14456 21.6006 6.66699 22.0781 6.66699 22.6673C6.66699 23.2564 7.14456 23.7339 7.73366 23.7339H24.267C24.8561 23.7339 25.3337 23.2564 25.3337 22.6673C25.3337 22.0781 24.8561 21.6006 24.267 21.6006Z" fill="#8F8F9F"/>
<path d="M24.267 14.9336H7.73366C7.14456 14.9336 6.66699 15.4112 6.66699 16.0003C6.66699 16.5894 7.14456 17.0669 7.73366 17.0669H24.267C24.8561 17.0669 25.3337 16.5894 25.3337 16.0003C25.3337 15.4112 24.8561 14.9336 24.267 14.9336Z" fill="#8F8F9F"/>
<path d="M24.267 8.2666H7.73366C7.14456 8.2666 6.66699 8.74416 6.66699 9.33327C6.66699 9.92237 7.14456 10.3999 7.73366 10.3999H24.267C24.8561 10.3999 25.3337 9.92237 25.3337 9.33327C25.3337 8.74416 24.8561 8.2666 24.267 8.2666Z" fill="#8F8F9F"/>
</svg>
