<svg width="14" height="15" viewBox="0 0 14 15" fill="none" xmlns="http://www.w3.org/2000/svg">
<path d="M0.40031 0.733672C0.81687 0.317112 1.49225 0.317113 1.9088 0.733672L13.5996 12.4245C14.0162 12.8411 14.0162 13.5164 13.5996 13.933C13.1831 14.3496 12.5077 14.3496 12.0911 13.933L0.40031 2.24217C-0.0162493 1.82561 -0.0162492 1.15023 0.40031 0.733672Z" fill="#E0969E"/>
<path d="M13.6 0.733562C13.1834 0.317003 12.5081 0.317003 12.0915 0.733562L0.400675 12.4244C-0.0158842 12.841 -0.0158841 13.5163 0.400675 13.9329C0.817235 14.3494 1.49261 14.3494 1.90917 13.9329L13.6 2.24206C14.0166 1.8255 14.0166 1.15012 13.6 0.733562Z" fill="#E0969E"/>
</svg>
