<svg width="14" height="15" viewBox="0 0 14 15" fill="none" xmlns="http://www.w3.org/2000/svg">
<g clip-path="url(#clip0_535_516)">
<path d="M0.40031 0.733318C0.81687 0.316758 1.49225 0.316759 1.9088 0.733318L13.5996 12.4241C14.0162 12.8407 14.0162 13.516 13.5996 13.9326C13.1831 14.3492 12.5077 14.3492 12.0911 13.9326L0.40031 2.24182C-0.0162492 1.82526 -0.0162491 1.14988 0.40031 0.733318Z" fill="#8F8F9F"/>
<path d="M13.6001 0.733318C13.1835 0.316759 12.5082 0.316759 12.0916 0.733318L0.400798 12.4242C-0.0157609 12.8408 -0.0157608 13.5161 0.400798 13.9327C0.817358 14.3492 1.49273 14.3492 1.90929 13.9327L13.6001 2.24182C14.0167 1.82526 14.0167 1.14988 13.6001 0.733318Z" fill="#8F8F9F"/>
</g>
<defs>
<clipPath id="clip0_535_516">
<rect width="14" height="15" fill="white"/>
</clipPath>
</defs>
</svg>
