<?xml version="1.0" encoding="UTF-8"?>
<svg id="_Слой_1" data-name="Слой_1" xmlns="http://www.w3.org/2000/svg" version="1.1" viewBox="0 0 60 60">
  <!-- Generator: Adobe Illustrator 29.5.0, SVG Export Plug-In . SVG Version: 2.1.0 Build 137)  -->
  <polygon points="21.8 27.3 21.8 21.8 27.3 21.8 27.3 16.4 27.3 10.9 21.8 10.9 21.8 16.4 16.4 16.4 16.4 21.8 10.9 21.8 10.9 27.3 16.4 27.3 21.8 27.3"/>
  <polygon points="32.7 21.8 38.2 21.8 38.2 27.3 43.6 27.3 49.1 27.3 49.1 21.8 43.6 21.8 43.6 16.4 38.2 16.4 38.2 10.9 32.7 10.9 32.7 16.4 32.7 21.8"/>
  <polygon points="27.3 38.2 21.8 38.2 21.8 32.7 16.4 32.7 10.9 32.7 10.9 38.2 16.4 38.2 16.4 43.6 21.8 43.6 21.8 49.1 27.3 49.1 27.3 43.6 27.3 38.2"/>
  <polygon points="38.2 32.7 38.2 38.2 32.7 38.2 32.7 43.6 32.7 49.1 38.2 49.1 38.2 43.6 43.6 43.6 43.6 38.2 49.1 38.2 49.1 32.7 43.6 32.7 38.2 32.7"/>
  <polygon points="32.7 5.5 32.7 0 27.3 0 27.3 5.5 27.3 10.9 32.7 10.9 32.7 5.5"/>
  <polygon points="5.5 27.3 0 27.3 0 32.7 5.5 32.7 10.9 32.7 10.9 27.3 5.5 27.3"/>
  <polygon points="27.3 54.5 27.3 60 32.7 60 32.7 54.5 32.7 49.1 27.3 49.1 27.3 54.5"/>
  <rect x="10.9" y="10.9" width="5.5" height="5.5"/>
  <rect x="43.6" y="10.9" width="5.5" height="5.5"/>
  <rect x="10.9" y="43.6" width="5.5" height="5.5"/>
  <rect x="43.6" y="43.6" width="5.5" height="5.5"/>
  <rect x="16.4" y="5.5" width="5.5" height="5.5"/>
  <rect x="38.2" y="5.5" width="5.5" height="5.5"/>
  <rect x="5.5" y="38.2" width="5.5" height="5.5"/>
  <rect x="49.1" y="38.2" width="5.5" height="5.5"/>
  <polygon points="54.5 27.3 49.1 27.3 49.1 32.7 54.5 32.7 60 32.7 60 27.3 54.5 27.3"/>
  <rect x="5.5" y="16.4" width="5.5" height="5.5"/>
  <rect x="49.1" y="16.4" width="5.5" height="5.5"/>
  <rect x="16.4" y="49.1" width="5.5" height="5.5"/>
  <rect x="38.2" y="49.1" width="5.5" height="5.5"/>
</svg>