<svg width="148" height="54" viewBox="0 0 148 54" fill="none" xmlns="http://www.w3.org/2000/svg">
<path fill-rule="evenodd" clip-rule="evenodd" d="M4.9432 1H56.2387V4.92696H20.7273V8.85393H24.6705V12.7809H32.5569V16.7079H12.8409V12.7809H1V4.92696H4.9432V1ZM91.7613 1H143.057V4.92696H147V12.7809H139.114V16.7079H119.386V12.7809H123.33V8.85393H127.273V4.92696H91.7613V1ZM56.2387 4.92696H91.75V8.85393H56.2387V4.92696ZM91.75 8.85393H95.6932V12.7809H91.75V8.85393ZM32.5682 16.7191H48.3523V24.573H44.4091V28.5H40.4659V20.6461H32.5795V16.7191H32.5682ZM60.1819 16.7191H68.0683V28.5H60.1819V16.7191ZM91.75 16.7191H99.6364V28.5H91.75V16.7191ZM111.489 16.7191H119.375V20.6461H115.432V24.573H111.489V16.7191ZM123.318 24.573H131.216V28.5H123.33V24.573H123.318ZM20.7273 28.5H28.6137V32.427H20.7273V28.5ZM79.9204 28.5H87.8068V32.427H79.9204V28.5ZM111.489 28.5H115.432V32.427H119.375V36.3539H115.432V40.2809H111.489V28.5ZM119.375 28.5H123.318V32.427H119.375V28.5ZM131.216 28.5H135.159V36.3539H131.216V28.5ZM16.7841 32.427H20.7273V40.2809H16.7841V32.427ZM28.625 32.427H32.5682V36.3539H28.625V32.427ZM36.5114 32.427H40.4546V44.2079H36.5114V40.2809H32.5682V36.3539H36.5114V32.427ZM48.3523 32.427H56.25V40.2809H48.3523V32.427ZM99.6477 32.427H107.534V40.2809H99.6477V32.427ZM64.1364 36.3539H68.0796V40.2809H64.1364V36.3539ZM75.9772 36.3539H79.9204V40.2809H75.9772V36.3539ZM87.8068 36.3539H91.75V40.2809H87.8068V36.3539ZM127.273 36.3539H131.216V44.2079H127.273V36.3539ZM20.7273 40.2809H24.6705V48.1348H20.7273V40.2809ZM68.0796 40.2809H75.9659V44.2079H72.0228V48.1348H68.0796V40.2809ZM79.9204 40.2809H87.8068V44.2079H83.8636V48.1348H79.9204V40.2809ZM107.545 40.2809H111.489V48.1348H107.545V40.2809ZM40.4659 44.2191H44.4091V48.1461H40.4659V44.2191ZM123.33 44.2191H127.273V52.073H123.33V44.2191ZM24.6818 48.1461H28.625V56H24.6818V48.1461ZM44.4091 48.1461H48.3523V52.073H44.4091V48.1461ZM72.0228 48.1461H79.9091V52.073H72.0114V48.1461H72.0228ZM103.591 48.1461H107.534V52.073H103.591V48.1461ZM119.375 52.073H123.318V56H119.375V52.073Z" fill="#1A1A1A"/>
<path d="M56.2387 4.92696V1H4.9432V4.92696H1V12.7809H12.8409V16.7079H32.5569V12.7809H24.6705V8.85393H20.7273V4.92696H56.2387ZM56.2387 4.92696H91.75V8.85393M56.2387 4.92696V8.85393H91.75M91.75 8.85393H95.6932V12.7809H91.75V8.85393ZM131.216 28.5V24.573H123.318H123.33V28.5H131.216ZM131.216 28.5H135.159V36.3539H131.216M131.216 28.5V36.3539M20.7273 32.427H28.6137V28.5H20.7273V32.427ZM20.7273 32.427H16.7841V40.2809H20.7273M20.7273 32.427V40.2809M119.375 32.427H115.432V28.5H111.489V40.2809M119.375 32.427V36.3539H115.432V40.2809H111.489M119.375 32.427H123.318V28.5H119.375V32.427ZM111.489 40.2809H107.545V48.1348H111.489V40.2809ZM131.216 36.3539H127.273V44.2079H131.216V36.3539ZM20.7273 40.2809H24.6705V48.1348H20.7273V40.2809ZM32.5682 36.3539V32.427H28.625V36.3539H32.5682ZM32.5682 36.3539V40.2809H36.5114V44.2079H40.4546V32.427H36.5114V36.3539H32.5682ZM68.0795 40.2809V36.3539H64.1364V40.2809H68.0795ZM68.0795 40.2809H75.9659V44.2079H72.0227V48.1348H68.0795V40.2809ZM79.9204 40.2809V36.3539H75.9772V40.2809H79.9204ZM79.9204 40.2809H87.8068M79.9204 40.2809V48.1348H83.8636V44.2079H87.8068V40.2809M87.8068 40.2809H91.75V36.3539H87.8068V40.2809ZM44.4091 48.1461V44.2191H40.4659V48.1461H44.4091ZM44.4091 48.1461H48.3523V52.073H44.4091V48.1461ZM91.7613 1H143.057V4.92696H147V12.7809H139.114V16.7079H119.386V12.7809H123.33V8.85393H127.273V4.92696H91.7613V1ZM32.5682 16.7191H48.3523V24.573H44.4091V28.5H40.4659V20.6461H32.5795V16.7191H32.5682ZM60.1819 16.7191H68.0683V28.5H60.1819V16.7191ZM91.75 16.7191H99.6364V28.5H91.75V16.7191ZM111.489 16.7191H119.375V20.6461H115.432V24.573H111.489V16.7191ZM79.9204 28.5H87.8068V32.427H79.9204V28.5ZM48.3523 32.427H56.25V40.2809H48.3523V32.427ZM99.6477 32.427H107.534V40.2809H99.6477V32.427ZM123.33 44.2191H127.273V52.073H123.33V44.2191ZM24.6818 48.1461H28.625V56H24.6818V48.1461ZM72.0227 48.1461H79.9091V52.073H72.0114V48.1461H72.0227ZM103.591 48.1461H107.534V52.073H103.591V48.1461ZM119.375 52.073H123.318V56H119.375V52.073Z" stroke="black"/>
</svg>
