<?xml version="1.0" encoding="UTF-8"?>
<svg id="_Слой_2" data-name="Слой 2" xmlns="http://www.w3.org/2000/svg" viewBox="0 0 440.41 142.76">
  <defs>
    <style>
      .cls-1 {
        fill: #fff;
        stroke: #000;
        stroke-miterlimit: 10;
      }
    </style>
  </defs>
  <g id="_Слой_1-2" data-name=" Слой 1">
    <g>
      <polygon class="cls-1" points="384.11 80.51 384.11 74.43 384.11 68.17 384.11 62.06 384.11 55.99 390.18 55.99 390.18 49.72 390.18 43.62 384.11 43.62 377.97 43.62 377.97 49.72 371.9 49.72 371.9 55.99 371.9 62.06 371.9 68.17 365.76 68.17 365.76 62.06 365.76 55.99 365.76 49.72 365.76 43.62 359.37 43.62 353.3 43.62 353.3 49.72 353.3 55.99 353.3 62.06 353.3 68.17 353.3 74.43 353.3 80.51 347.16 80.51 340.77 80.51 334.69 80.51 334.69 74.43 334.69 68.17 334.69 62.06 334.69 55.99 334.69 49.72 334.69 43.62 328.56 43.62 328.56 49.72 328.56 55.99 328.56 62.06 328.56 68.17 328.56 74.43 328.56 80.51 322.17 80.51 316.09 80.51 316.09 86.77 322.17 86.77 328.56 86.77 334.69 86.77 340.77 86.77 347.16 86.77 353.3 86.77 359.37 86.77 365.76 86.77 371.9 86.77 371.9 80.51 365.76 80.51 365.76 74.43 371.9 74.43 371.9 80.51 377.97 80.51 377.97 86.77 384.11 86.77 390.18 86.77 396.57 86.77 396.57 80.51 390.18 80.51 384.11 80.51"/>
      <polygon class="cls-1" points="142.54 86.77 149 86.77 149 80.51 142.54 80.51 136.85 80.51 136.85 86.77 142.54 86.77"/>
      <rect class="cls-1" x="402.96" y="74.43" width="5.82" height="6.07"/>
      <rect class="cls-1" x="216.95" y="74.43" width="6.45" height="6.07"/>
      <rect class="cls-1" x="223.4" y="68.17" width="6.07" height="6.26"/>
      <polygon class="cls-1" points="62.44 68.17 68.77 68.17 68.77 62.06 74.59 62.06 74.59 55.99 81.04 55.99 81.04 49.72 81.04 43.62 74.59 43.62 68.77 43.62 68.77 49.72 62.44 49.72 62.44 55.99 55.99 55.99 55.99 62.06 50.17 62.06 50.17 68.17 43.84 68.17 43.84 74.43 43.84 76.65 37.7 76.65 37.7 80.51 37.7 82.91 37.7 86.77 31.57 86.77 31.57 92.84 25.24 92.84 25.24 99.11 19.1 99.11 19.1 105.21 12.96 105.21 12.96 111.29 6.64 111.29 6.64 117.55 6.64 123.66 .5 123.66 .5 129.89 .5 135.99 .5 142.26 6.64 142.26 6.64 135.99 12.96 135.99 12.96 129.89 12.96 123.66 19.1 123.66 19.1 117.55 25.24 117.55 25.24 111.29 31.57 111.29 31.57 105.21 37.7 105.21 37.7 99.11 43.84 99.11 43.84 92.84 43.84 86.77 50.17 86.77 50.17 80.51 55.99 80.51 55.99 74.43 62.44 74.43 62.44 68.17"/>
      <polygon class="cls-1" points="167.6 62.06 161.52 62.06 161.52 55.99 161.52 49.72 155.45 49.72 155.45 43.62 149 43.62 142.54 43.62 136.85 43.62 136.85 49.72 142.54 49.72 149 49.72 149 55.99 155.45 55.99 155.45 62.06 155.45 68.17 155.45 74.43 155.45 80.51 161.52 80.51 161.52 74.43 161.52 68.17 167.6 68.17 167.6 62.06"/>
      <polygon class="cls-1" points="130.39 55.99 124.32 55.99 124.32 62.06 124.32 68.17 124.32 74.43 130.39 74.43 130.39 80.51 136.85 80.51 136.85 74.43 136.85 68.17 136.85 62.06 136.85 55.99 136.85 49.72 130.39 49.72 130.39 55.99"/>
      <polygon class="cls-1" points="421.56 43.62 421.56 49.72 415.17 49.72 415.17 55.99 415.17 62.06 415.17 68.17 421.56 68.17 421.56 62.06 427.38 62.06 427.38 55.99 433.78 55.99 433.78 49.72 433.78 43.62 427.38 43.62 421.56 43.62"/>
      <rect class="cls-1" x="408.78" y="68.17" width="6.39" height="6.26"/>
      <polygon class="cls-1" points="272.75 80.51 266.36 80.51 266.36 86.77 272.75 86.77 279.21 86.77 284.96 86.77 284.96 80.51 279.21 80.51 272.75 80.51"/>
      <polygon class="cls-1" points="316.09 55.99 316.09 49.72 309.96 49.72 309.96 55.99 303.56 55.99 303.56 62.06 297.81 62.06 297.81 68.17 291.35 68.17 291.35 74.43 284.96 74.43 284.96 80.51 291.35 80.51 297.81 80.51 297.81 74.43 303.56 74.43 303.56 68.17 309.96 68.17 309.96 62.06 316.09 62.06 316.09 55.99"/>
      <rect class="cls-1" x="316.09" y="43.62" width="6.07" height="6.11"/>
      <polygon class="cls-1" points="272.75 74.43 272.75 68.17 279.21 68.17 279.21 62.06 284.96 62.06 284.96 55.99 291.35 55.99 291.35 49.72 297.81 49.72 297.81 43.62 291.35 43.62 284.96 43.62 279.21 43.62 272.75 43.62 272.75 49.72 266.36 49.72 266.36 43.62 254.15 43.62 242 43.62 235.55 43.62 235.55 55.99 242 55.99 242 86.77 254.15 86.77 254.15 55.99 266.36 55.99 266.36 62.06 260.6 62.06 260.6 68.17 260.6 74.43 260.6 80.51 266.36 80.51 266.36 74.43 272.75 74.43"/>
      <polygon class="cls-1" points="198.35 43.62 192.27 43.62 186.2 43.62 186.2 49.72 192.27 49.72 192.27 55.99 198.35 55.99 198.35 49.72 198.35 43.62"/>
      <polygon class="cls-1" points="179.74 43.62 173.67 43.62 173.67 49.72 173.67 55.99 173.67 62.06 173.67 68.17 173.67 74.43 173.67 80.51 167.6 80.51 167.6 86.77 173.67 86.77 179.74 86.77 186.2 86.77 186.2 80.51 179.74 80.51 179.74 74.43 179.74 68.17 179.74 62.06 179.74 55.99 186.2 55.99 186.2 49.72 179.74 49.72 179.74 43.62"/>
      <polygon class="cls-1" points="328.56 43.46 334.69 43.46 334.69 37.39 334.69 31.28 334.69 25.02 334.69 18.94 334.69 12.68 334.69 6.57 334.69 .5 328.56 .5 322.17 .5 322.17 6.57 328.56 6.57 328.56 12.68 328.56 18.94 328.56 25.02 328.56 31.28 322.17 31.28 322.17 37.39 328.56 37.39 328.56 43.46"/>
      <rect class="cls-1" x="316.09" y="37.39" width="6.07" height="6.07"/>
      <polygon class="cls-1" points="297.81 43.46 303.56 43.46 303.56 37.39 309.96 37.39 316.09 37.39 316.09 31.28 316.09 25.02 309.96 25.02 309.96 31.28 303.56 31.28 297.81 31.28 291.35 31.28 291.35 37.39 284.96 37.39 284.96 43.46 291.35 43.46 297.81 43.46"/>
      <polygon class="cls-1" points="87.12 43.46 87.12 37.39 93.19 37.39 93.19 31.28 99.64 31.28 105.72 31.28 111.79 31.28 116.28 31.28 116.28 34.32 118.25 34.32 118.25 37.39 118.25 43.46 124.32 43.46 124.32 37.39 124.32 31.28 122.67 31.28 122.67 28.24 118.25 28.24 118.25 25.02 111.79 25.02 111.79 18.94 105.72 18.94 99.64 18.94 99.64 25.02 93.19 25.02 87.12 25.02 87.12 31.28 81.04 31.28 81.04 37.39 74.59 37.39 74.59 43.46 81.04 43.46 87.12 43.46"/>
      <polygon class="cls-1" points="433.78 18.94 433.78 12.68 427.38 12.68 421.56 12.68 415.17 12.68 408.78 12.68 402.96 12.68 402.96 18.94 408.78 18.94 415.17 18.94 421.56 18.94 421.56 25.02 421.56 31.28 421.56 37.39 421.56 43.46 427.38 43.46 433.78 43.46 439.91 43.46 439.91 37.39 439.91 31.28 439.91 25.02 439.91 18.94 433.78 18.94"/>
      <rect class="cls-1" x="396.57" y="18.94" width="6.39" height="6.07"/>
      <polygon class="cls-1" points="390.18 31.28 384.11 31.28 384.11 37.39 377.97 37.39 377.97 43.46 384.11 43.46 390.18 43.46 390.18 37.39 396.57 37.39 396.57 31.28 396.57 25.02 390.18 25.02 390.18 31.28"/>
      <polygon class="cls-1" points="211.26 43.62 229.48 43.62 229.48 49.72 223.4 49.72 223.4 55.99 216.95 55.99 216.95 62.06 211.26 62.06 211.26 74.43 204.8 74.43 204.8 80.5 211.26 80.5 211.26 86.77 192.28 86.77 192.28 68.17 198.35 68.17 198.35 55.99 204.8 55.99 204.8 49.72 211.26 49.72 211.26 43.62"/>
      <polygon class="cls-1" points="279.21 .5 279.21 6.57 266.37 6.57 266.37 12.84 260.61 12.84 260.61 18.94 254.15 18.94 254.15 25.02 266.37 25.02 266.37 37.38 254.15 37.38 254.15 43.46 242.01 43.46 242.01 37.38 235.55 37.38 235.55 43.46 216.95 43.46 216.95 37.38 211.26 37.38 211.26 31.28 229.48 31.28 229.48 25.02 235.55 25.02 235.55 18.94 242.01 18.94 242.01 12.84 248.08 12.84 248.08 6.57 260.61 6.57 260.61 .5 279.21 .5"/>
      <polygon class="cls-1" points="365.76 18.94 365.76 12.68 365.76 6.57 359.37 6.57 353.3 6.57 353.3 12.68 353.3 18.94 359.37 18.94 365.76 18.94"/>
      <polygon class="cls-1" points="124.32 43.62 118.25 43.62 111.79 43.62 111.79 49.72 105.72 49.72 105.72 55.99 99.64 55.99 99.64 62.06 93.19 62.06 93.19 68.17 87.12 68.17 87.12 74.43 81.04 74.43 74.59 74.43 74.59 80.51 68.77 80.51 62.44 80.51 62.44 86.77 68.77 86.77 74.59 86.77 81.04 86.77 81.04 80.51 87.12 80.51 93.19 80.51 99.64 80.51 99.64 74.43 105.72 74.43 105.72 68.17 111.79 68.17 111.79 62.06 118.25 62.06 118.25 55.99 124.32 55.99 124.32 49.72 124.32 43.62"/>
    </g>
  </g>
</svg>