<svg width="1071" height="176" viewBox="0 0 1071 176" fill="none" xmlns="http://www.w3.org/2000/svg">
<g clip-path="url(#clip0_513_725)">
<path d="M899.64 197.045H885.371V175.17H899.64V153.261H913.909V131.352H928.211V109.477H942.48H956.749V87.5683H971.051H985.32V65.6931H971.051V43.7841V21.9089H956.749H942.48V0H928.211V21.9089V43.7841H913.909V65.6931H899.64V87.5683H885.371V109.477H871.069H856.8V131.352H842.531V153.261V175.17V197.045V218.954H856.8H871.069H885.371H899.64H913.909H928.211V197.045H913.909H899.64Z" fill="white"/>
<path d="M428.4 197.046H414.131V175.171H428.4V153.262H442.669V131.353H456.971V109.477H471.24V87.5685V65.6933H485.509V43.7844V21.9092H471.24H456.971V43.7844H442.669V65.6933H428.4V87.5685H414.131H399.829V109.477H385.56V131.353H371.291V153.262V175.171V197.046V218.955H385.56H399.829H414.131H428.4H442.669H456.971V197.046H442.669H428.4Z" fill="white"/>
<path d="M928.211 175.17V197.045H942.48H956.749V175.17H942.48H928.211Z" fill="white"/>
<path d="M785.389 175.17H771.12V197.045H756.851H742.549V175.17H728.28V197.045V218.954H742.549H756.851H771.12H785.389V197.045H799.691H813.96V175.17H799.691H785.389Z" fill="white"/>
<path d="M471.24 175.17H456.971V197.079H471.24V175.17Z" fill="white"/>
<path d="M299.88 175.17V197.045H285.611H271.309V175.17H257.04V197.045V218.954H271.309H285.611H299.88H314.149V197.045H328.451V175.17H314.149H299.88Z" fill="white"/>
<path d="M956.749 153.262V175.171H971.051H985.32V153.262H971.051H956.749Z" fill="white"/>
<path d="M828.229 153.262H813.96V175.171H828.229V153.262Z" fill="white"/>
<path d="M499.777 153.262H485.509V175.171H499.777V153.262Z" fill="white"/>
<path d="M328.451 153.262V175.171H342.72H356.989V153.262H342.72H328.451Z" fill="white"/>
<path d="M985.32 131.353V153.261H999.589H1013.89V131.353H999.589H985.32Z" fill="white"/>
<path d="M1028.16 109.478H1013.89V131.386H1028.16V109.478Z" fill="white"/>
<path d="M799.657 109.478H785.389V131.386H799.657V109.478Z" fill="white"/>
<path d="M742.549 131.353V109.477H756.851V87.5685H771.12H785.389V65.6933H799.691V43.7844H813.96H828.229V21.9092H813.96H799.691H785.389H771.12V43.7844H756.851V21.9092H742.549V43.7844H728.28V65.6933H714.011V87.5685H699.709H685.44V109.477H671.171V131.353H656.869H642.6V153.262H628.331H614.029V175.171V197.046H599.76V218.955H585.491V197.046H571.189H556.92V218.955H571.189V240.83H556.92V262.739H542.651H528.349V284.614V306.523H514.08V328.432H499.811V350.307H485.509V372.216H471.24V394.091V416H485.509H499.811V394.091H514.08V372.216H528.349V350.307H542.651V328.432H556.92V306.523H571.189H585.491V284.614H599.76V262.739H614.029V240.83H628.331V218.955H642.6H656.869V197.046H671.171V175.171H685.44V153.262H699.709H714.011V131.353H728.28H742.549Z" fill="white"/>
<path d="M328.417 109.478H314.149V131.386H328.417V109.478Z" fill="white"/>
<path d="M257.04 109.477H271.309H285.611V87.5685H299.88V65.6933H314.149H328.451V43.7844H342.72H356.989V21.9092H342.72H328.451H314.149H299.88V43.7844H285.611V21.9092H271.309V43.7844H257.04H242.771V65.6933H228.469V87.5685H214.2V109.477H199.931H185.629V131.353H171.36V153.262H157.091V175.171H142.789V197.046H128.52H114.251H99.9487H85.68V175.171V153.262H99.9487H114.251V131.353H128.52V109.477H142.789H157.091V87.5685H171.36V65.6933H185.629H199.931V43.7844H214.2H228.469H242.771V21.9092H228.469H214.2H199.931H185.629H171.36V43.7844H157.091H142.789H128.52V65.6933H114.251H99.9487V87.5685H85.68H71.4113V109.477H57.1087V131.353H42.84V153.262V175.171V197.046V218.955H57.1087H71.4113H85.68H99.9487V240.83H85.68V262.739H71.4113H57.1087V284.614H42.84V306.523H28.5713V328.432H14.2687V350.307H0V372.216V394.091V416H14.2687V394.091H28.5713H42.84V372.216H57.1087V350.307H71.4113V328.432H85.68V306.523H99.9487V284.614H114.251V262.739H128.52H142.789V240.83H157.091V218.955H171.36H185.629V197.046H199.931V175.171H214.2V153.262H228.469H242.771V131.353H257.04V109.477Z" fill="white"/>
<path d="M828.229 87.5684H813.96V109.477H828.229V87.5684Z" fill="white"/>
<path d="M328.451 87.5684V109.477H342.72H356.989V87.5684H342.72H328.451Z" fill="white"/>
<path d="M856.8 87.5686V65.6934H842.531H828.229V87.5686H842.531H856.8Z" fill="white"/>
<path d="M585.491 65.6933H571.189V87.5685H556.92H542.651V109.477H528.349V131.353H514.08V153.262V175.171V197.046V218.955H528.349H542.651V197.046V175.171H556.92V153.262H571.189H585.491V131.353H599.76V109.477H614.029H628.331V87.5685H642.6H656.869V65.6933H671.171H685.44V43.7844H699.709H714.011V21.9092H699.709H685.44H671.171H656.869V43.7844H642.6H628.331H614.029H599.76V65.6933H585.491Z" fill="white"/>
<path d="M499.777 65.6934H485.509V87.6023H499.777V65.6934Z" fill="white"/>
<path d="M371.257 65.6934H356.989V87.6023H371.257V65.6934Z" fill="white"/>
<path d="M999.589 43.7842H985.32V65.6931H999.589V43.7842Z" fill="white"/>
<path d="M871.069 43.7842H856.8V65.6931H871.069V43.7842Z" fill="white"/>
<path d="M528.349 65.6931V43.7842H514.08H499.811V65.6931H514.08H528.349Z" fill="white"/>
<path d="M399.829 65.6931V43.7842H385.56H371.291V65.6931H385.56H399.829Z" fill="white"/>
<path d="M1056.73 21.9089V0H1042.43V21.9089H1028.16H1013.89V43.7841H1028.16H1042.43H1056.73H1071V21.9089H1056.73Z" fill="white"/>
<path d="M899.64 21.9092H885.371V43.7844H899.64H913.909V21.9092H899.64Z" fill="white"/>
<path d="M556.92 43.7841H571.189H585.491H599.76V21.9089H585.491V0H571.189V21.9089H556.92H542.651H528.349V43.7841H542.651H556.92Z" fill="white"/>
<path d="M428.4 21.9092H414.131V43.7844H428.4H442.669V21.9092H428.4Z" fill="white"/>
</g>
<defs>
<clipPath id="clip0_513_725">
<rect width="1071" height="416" fill="white"/>
</clipPath>
</defs>
</svg>
